<?xml version="1.0" encoding="UTF-8" standalone="no"?>
<!DOCTYPE svg PUBLIC "-//W3C//DTD SVG 1.1//EN" "http://www.w3.org/Graphics/SVG/1.1/DTD/svg11.dtd">
<svg width="100%" height="100%" viewBox="0 0 1349 355" version="1.1" xmlns="http://www.w3.org/2000/svg" xmlns:xlink="http://www.w3.org/1999/xlink" xml:space="preserve" xmlns:serif="http://www.serif.com/" style="fill-rule:evenodd;clip-rule:evenodd;stroke-linejoin:round;stroke-miterlimit:2;">
    <g transform="matrix(1,0,0,1,-491.0168,-1575.275643)">
        <g transform="matrix(1,0,0,1,-584,545)">
            <g transform="matrix(1,0,0,1,39,-5.461659)">
                <g transform="matrix(491.666667,0,0,491.666667,1372.3168,1386.295636)">
                </g>
                <path d="M1187.45 1390.23Q1140.74 1390.23 1106.82 1368.6Q1072.89 1346.96 1054.45 1307.14Q1036.02 1267.31 1036.02 1212.74Q1036.02 1171.44 1046.34 1138.74Q1056.67 1106.05 1076.33 1083.18Q1096 1060.32 1124.03 1048.03Q1152.05 1035.74 1187.45 1035.74Q1234.65 1035.74 1268.82 1057.13Q1302.99 1078.51 1321.18 1118.09Q1339.38 1157.67 1339.38 1212.25Q1339.38 1253.55 1328.8 1286.49Q1318.23 1319.43 1298.57 1342.54Q1278.9 1365.65 1250.88 1377.94Q1222.85 1390.23 1187.45 1390.23ZM1187.45 1370.07Q1228.75 1370.07 1257.76 1351.63Q1286.77 1333.2 1302.01 1298.04Q1317.25 1262.89 1317.25 1212.74Q1317.25 1138 1283.57 1096.95Q1249.89 1055.9 1187.45 1055.9Q1146.64 1055.9 1117.63 1074.33Q1088.63 1092.77 1073.38 1127.93Q1058.14 1163.08 1058.14 1212.74Q1058.14 1286.98 1092.07 1328.53Q1125.99 1370.07 1187.45 1370.07Z" style="fill-rule:nonzero;"/>
            </g>
            <g transform="matrix(1,0,0,1,-1440,-331.964773)">
                <g transform="matrix(491.666667,0,0,491.666667,2807.7853,1713.559296)">
                    <path d="M0.067,0.006C0.058,0.006 0.051,0.005 0.047,0.001C0.042,-0.003 0.039,-0.008 0.039,-0.015C0.038,-0.021 0.04,-0.029 0.043,-0.037L0.324,-0.683C0.329,-0.693 0.334,-0.7 0.341,-0.705C0.347,-0.709 0.354,-0.711 0.361,-0.711C0.369,-0.711 0.376,-0.709 0.382,-0.705C0.389,-0.7 0.394,-0.693 0.398,-0.683L0.679,-0.037C0.683,-0.029 0.685,-0.021 0.684,-0.015C0.684,-0.008 0.682,-0.003 0.677,0.001C0.673,0.005 0.667,0.006 0.658,0.006C0.649,0.006 0.641,0.004 0.635,-0.001C0.63,-0.006 0.625,-0.013 0.621,-0.022L0.544,-0.203L0.577,-0.188L0.144,-0.188L0.178,-0.203L0.101,-0.022C0.097,-0.012 0.092,-0.005 0.086,-0C0.08,0.004 0.074,0.006 0.067,0.006ZM0.36,-0.629L0.19,-0.229L0.167,-0.241L0.554,-0.241L0.532,-0.229L0.362,-0.629L0.36,-0.629Z" style="fill-rule:nonzero;"/>
                </g>
                <g transform="matrix(491.666667,0,0,491.666667,3162.969573,1713.559296)">
                </g>
            </g>
            <g transform="matrix(1,0,0,1,-1083,667.041515)">
                <g transform="matrix(491.666667,0,0,491.666667,2728.360735,714.314857)">
                    <path d="M0.301,0.007C0.288,0.007 0.278,0.003 0.271,-0.004C0.264,-0.012 0.26,-0.022 0.26,-0.036L0.26,-0.634L0.035,-0.634C0.023,-0.634 0.014,-0.637 0.007,-0.644C0,-0.65 -0.003,-0.659 -0.003,-0.67C-0.003,-0.681 0,-0.69 0.007,-0.696C0.014,-0.702 0.023,-0.705 0.035,-0.705L0.568,-0.705C0.58,-0.705 0.59,-0.702 0.596,-0.696C0.603,-0.69 0.606,-0.681 0.606,-0.67C0.606,-0.659 0.603,-0.65 0.596,-0.644C0.59,-0.637 0.58,-0.634 0.568,-0.634L0.343,-0.634L0.343,-0.036C0.343,-0.022 0.339,-0.012 0.332,-0.004C0.326,0.003 0.315,0.007 0.301,0.007Z" style="fill-rule:nonzero;"/>
                </g>
                <g transform="matrix(491.666667,0,0,491.666667,3024.562714,714.314857)">
                </g>
            </g>
            <g transform="matrix(1,0,0,1,-534,-1023.134229)">
                <g transform="matrix(491.666667,0,0,491.666667,2458.602817,2403.968206)">
                    <path d="M0.141,0.008C0.12,0.008 0.104,0.002 0.093,-0.009C0.083,-0.021 0.077,-0.037 0.077,-0.058L0.077,-0.647C0.077,-0.668 0.083,-0.685 0.093,-0.696C0.104,-0.707 0.12,-0.713 0.141,-0.713C0.162,-0.713 0.177,-0.707 0.189,-0.696C0.2,-0.685 0.205,-0.668 0.205,-0.647L0.205,-0.411L0.568,-0.411L0.568,-0.647C0.568,-0.668 0.574,-0.685 0.585,-0.696C0.596,-0.707 0.611,-0.713 0.632,-0.713C0.653,-0.713 0.668,-0.707 0.679,-0.696C0.691,-0.685 0.696,-0.668 0.696,-0.647L0.696,-0.058C0.696,-0.037 0.691,-0.021 0.679,-0.009C0.668,0.002 0.653,0.008 0.632,0.008C0.611,0.008 0.596,0.002 0.585,-0.009C0.574,-0.021 0.568,-0.037 0.568,-0.058L0.568,-0.304L0.205,-0.304L0.205,-0.058C0.205,-0.037 0.2,-0.021 0.189,-0.009C0.178,0.002 0.162,0.008 0.141,0.008Z" style="fill-rule:nonzero;"/>
                </g>
                <g transform="matrix(508.333333,0,0,508.333333,2838.66115,2403.968206)">
                    <path d="M0.137,0.006C0.106,0.006 0.082,-0.003 0.064,-0.021C0.047,-0.039 0.038,-0.063 0.038,-0.092C0.038,-0.12 0.047,-0.143 0.064,-0.161C0.082,-0.179 0.106,-0.188 0.137,-0.188C0.167,-0.188 0.192,-0.179 0.209,-0.161C0.226,-0.143 0.234,-0.12 0.234,-0.092C0.234,-0.063 0.226,-0.039 0.209,-0.021C0.192,-0.003 0.167,0.006 0.137,0.006Z" style="fill:rgb(58,102,248);fill-rule:nonzero;"/>
                </g>
                <g transform="matrix(508.333333,0,0,508.333333,2976.737874,2403.968206)">
                </g>
            </g>
        </g>
    </g>
</svg>
